<svg width="140" height="140" viewBox="0 0 140 140" fill="none" xmlns="http://www.w3.org/2000/svg">
<path d="M70.001 26.6313C93.9525 26.6316 113.369 46.0489 113.369 70.0005C113.369 93.9518 93.9523 113.368 70.001 113.369C46.0494 113.369 26.6321 93.952 26.6318 70.0005C26.6318 46.0488 46.0493 26.6313 70.001 26.6313Z" stroke="#D98E04" stroke-width="4.16668"/>
<path d="M82.5573 18.3957C83.4179 19.867 82.1246 21.6677 80.4576 21.3114C77.0854 20.5908 73.5875 20.2122 70.0006 20.2122C66.4136 20.2122 62.8124 20.6019 59.394 21.3448C57.7254 21.7074 56.4274 19.9036 57.2896 18.4291L67.1358 1.60459C68.3876 -0.534862 71.4799 -0.534862 72.7318 1.60459L82.5573 18.3957Z" fill="#D98E04"/>
<path d="M42.3899 24.6327C44.0394 25.0637 44.3973 27.2525 42.9673 28.1783C40.0739 30.0537 37.3316 32.2583 34.7945 34.7954C32.2208 37.3691 29.9875 40.1544 28.0946 43.0955C27.1704 44.5319 24.9784 44.174 24.5458 42.5229L19.6115 23.664C18.9832 21.2652 21.1704 19.0796 23.5691 19.7064L42.3899 24.6327Z" fill="#D98E04"/>
<path d="M18.3957 57.445C19.867 56.5844 21.6677 57.8776 21.3114 59.5446C20.5908 62.9169 20.2122 66.4147 20.2122 70.0017C20.2122 73.6427 20.6019 77.1899 21.3448 80.6083C21.7074 82.2769 19.9036 83.5749 18.4291 82.7127L1.60459 72.8665C-0.534862 71.6146 -0.534862 68.5224 1.60459 67.2705L18.3957 57.445Z" fill="#D98E04"/>
<path d="M24.6331 97.6125C25.0642 95.9629 27.2529 95.605 28.1787 97.0351C30.0541 99.9285 32.2588 102.671 34.7959 105.208C37.3696 107.782 40.1548 110.015 43.096 111.908C44.5323 112.832 44.1744 115.024 42.5233 115.457L23.6644 120.391C21.2657 121.019 19.0801 118.832 19.7068 116.433L24.6331 97.6125Z" fill="#D98E04"/>
<path d="M57.4456 121.605C56.585 120.133 57.8782 118.333 59.5453 118.689C62.9175 119.409 66.4153 119.788 70.0023 119.788C73.6433 119.788 77.1905 119.398 80.6089 118.656C82.2775 118.293 83.5755 120.097 82.7133 121.571L72.8671 138.396C71.6152 140.535 68.523 140.535 67.2711 138.396L57.4456 121.605Z" fill="#D98E04"/>
<path d="M97.6125 115.369C95.963 114.938 95.6051 112.749 97.0351 111.824C99.9285 109.948 102.671 107.743 105.208 105.206C107.782 102.633 110.015 99.8474 111.908 96.9062C112.832 95.4699 115.024 95.8278 115.457 97.4789L120.391 116.338C121.019 118.737 118.832 120.922 116.433 120.295L97.6125 115.369Z" fill="#D98E04"/>
<path d="M121.605 82.5568C120.133 83.4173 118.333 82.1241 118.689 80.4571C119.409 77.0849 119.788 73.587 119.788 70C119.788 66.359 119.398 62.8118 118.656 59.3935C118.293 57.7249 120.097 56.4269 121.571 57.289L138.396 67.1352C140.535 68.3871 140.535 71.4793 138.396 72.7312L121.605 82.5568Z" fill="#D98E04"/>
<path d="M115.37 42.3893C114.939 44.0388 112.75 44.3967 111.824 42.9667C109.949 40.0733 107.744 37.331 105.207 34.7938C102.633 32.2201 99.848 29.9868 96.9068 28.094C95.4705 27.1698 95.8284 24.9778 97.4795 24.5452L116.338 19.6109C118.737 18.9826 120.923 21.1698 120.296 23.5685L115.37 42.3893Z" fill="#D98E04"/>
</svg>
